<svg width="23" height="20" viewBox="0 0 23 20" fill="none" xmlns="http://www.w3.org/2000/svg">
<path fill-rule="evenodd" clip-rule="evenodd" d="M9.63132 2C9.06716 2 8.60982 2.44772 8.60982 3V6.5H3.06451C2.50035 6.5 2.04301 6.94772 2.04301 7.5V17C2.04301 17.5523 2.50035 18 3.06451 18H19.9193C20.4835 18 20.9408 17.5523 20.9408 17V7.5C20.9408 6.94772 20.4835 6.5 19.9193 6.5H15.1037V3C15.1037 2.44771 14.6463 2 14.0822 2H9.63132ZM6.56681 3C6.56681 1.34315 7.93884 0 9.63132 0H14.0822C15.7746 0 17.1467 1.34315 17.1467 3V4.5H19.9193C21.6118 4.5 22.9838 5.84314 22.9838 7.5V17C22.9838 18.6569 21.6118 20 19.9193 20H3.06451C1.37203 20 0 18.6569 0 17V7.5C0 5.84314 1.37203 4.5 3.06451 4.5H6.56681V3Z" fill="#8E45EA"/>
<path fill-rule="evenodd" clip-rule="evenodd" d="M20.691 6.7978C20.5401 6.63647 20.2117 6.44278 19.4866 6.49717L19.4476 6.50009H3.10859C2.42911 6.55959 2.29803 6.66856 2.25896 6.71134C2.21891 6.75519 2.12826 6.89482 2.07808 7.31215L11.8544 10.7923C12.0963 10.8785 12.3626 10.872 12.5999 10.7742L20.9322 7.33964C20.8887 7.08273 20.7942 6.90817 20.691 6.7978ZM22.1978 5.44719C22.8751 6.17135 23.0692 7.14719 22.9795 8.09258L22.9228 8.68918L13.3927 12.6174C12.6808 12.9108 11.8821 12.9303 11.1562 12.6719L0 8.70052V8.00009C0 6.9708 0.135098 6.03607 0.736014 5.3782C1.35399 4.70165 2.23995 4.56417 2.97929 4.50357L3.02183 4.50009H19.3716C20.5079 4.42348 21.5132 4.71529 22.1978 5.44719Z" fill="#8E45EA"/>
</svg>
