<svg width="22" height="20" viewBox="0 0 22 20" fill="none" xmlns="http://www.w3.org/2000/svg">
<path fill-rule="evenodd" clip-rule="evenodd" d="M12.8858 5.8355L11.5145 1.85055C11.3525 1.38002 10.6475 1.38001 10.4855 1.85056L9.11415 5.8355C8.75206 6.88766 7.71356 7.60003 6.54181 7.60003H2.10392C1.5799 7.60003 1.36202 8.23313 1.78597 8.52395L5.37629 10.9868C6.32426 11.637 6.72093 12.7897 6.35884 13.8418L4.98745 17.8268C4.82552 18.2973 5.39593 18.6886 5.81988 18.3978L9.41021 15.935C10.3582 15.2847 11.6418 15.2847 12.5898 15.935L16.1801 18.3978C16.6041 18.6886 17.1745 18.2973 17.0125 17.8268L15.6412 13.8418C15.2791 12.7897 15.6757 11.637 16.6237 10.9868L20.214 8.52395C20.638 8.23314 20.4201 7.60003 19.8961 7.60003H15.4582C14.2864 7.60003 13.2479 6.88766 12.8858 5.8355ZM12.5434 1.53491C12.0576 0.123282 9.94239 0.123284 9.45659 1.53491L8.08521 5.51985C7.86796 6.15114 7.24486 6.57857 6.54181 6.57857H2.10392C0.531848 6.57857 -0.121786 8.47789 1.15005 9.35033L4.74037 11.8132C5.30915 12.2033 5.54715 12.8949 5.3299 13.5262L3.95852 17.5111C3.47272 18.9228 5.18396 20.0966 6.4558 19.2242L10.0461 16.7614C10.6149 16.3712 11.3851 16.3712 11.9539 16.7614L15.5442 19.2242C16.816 20.0966 18.5273 18.9228 18.0415 17.5111L16.6701 13.5262C16.4528 12.8949 16.6908 12.2033 17.2596 11.8132L20.85 9.35032C22.1218 8.47789 21.4681 6.57857 19.8961 6.57857H15.4582C14.7551 6.57857 14.132 6.15114 13.9148 5.51985L12.5434 1.53491Z" fill="#F4CE07"/>
<path fill-rule="evenodd" clip-rule="evenodd" d="M12.4334 5.98985L11.062 2.00491C11.0577 1.99233 11.0534 1.98895 11.0485 1.9858C11.0403 1.98047 11.0234 1.97384 11 1.97384C10.9766 1.97384 10.9597 1.98047 10.9515 1.9858C10.9466 1.98895 10.9423 1.99233 10.938 2.00491L9.5666 5.98985C9.13397 7.24697 7.90442 8.07621 6.54181 8.07621H2.10392C2.08722 8.07621 2.07645 8.07866 2.07019 8.08069C2.06382 8.08275 2.05952 8.0852 2.05643 8.08746C2.0499 8.09223 2.04465 8.09933 2.04191 8.10728C2.04018 8.1123 2.04016 8.11542 2.04025 8.11662C2.04036 8.11679 2.04005 8.11636 2.04025 8.11662C2.04123 8.11795 2.04599 8.12405 2.05731 8.13182L5.64764 10.5946C6.76463 11.3609 7.24582 12.7335 6.81129 13.9962L5.4399 17.9811C5.43873 17.9846 5.43813 17.987 5.43783 17.9886C5.43962 17.9915 5.44448 17.9982 5.45531 18.0057C5.47005 18.0158 5.48712 18.021 5.50183 18.0214C5.51335 18.0218 5.52822 18.0196 5.54853 18.0057L9.13886 15.5428C10.2502 14.7805 11.7498 14.7805 12.8611 15.5428L16.4515 18.0057C16.4718 18.0196 16.4866 18.0218 16.4982 18.0214C16.5129 18.021 16.5299 18.0158 16.5447 18.0057C16.5555 17.9982 16.5604 17.9915 16.5622 17.9886C16.5619 17.987 16.5613 17.9846 16.5601 17.9811L15.1887 13.9962C14.7542 12.7335 15.2354 11.3609 16.3524 10.5946L19.9427 8.13181C19.954 8.12405 19.9583 8.1186 19.9593 8.11728C19.9595 8.11701 19.9592 8.11745 19.9593 8.11728C19.9594 8.11608 19.9598 8.1123 19.9581 8.10728C19.9554 8.09933 19.9501 8.09223 19.9436 8.08746C19.9405 8.0852 19.9362 8.08275 19.9298 8.08069C19.9235 8.07866 19.9128 8.07621 19.8961 8.07621H15.4582C14.0956 8.07621 12.866 7.24697 12.4334 5.98985ZM11 0C11.817 -5.96044e-07 12.6753 0.448986 12.9959 1.38055L14.3672 5.36549C14.514 5.79183 14.946 6.10238 15.4582 6.10238H19.8961C20.8962 6.10238 21.6279 6.71585 21.8919 7.48293C22.1571 8.25352 21.9468 9.17618 21.1213 9.74246L17.531 12.2053C17.1312 12.4795 16.9777 12.9511 17.1226 13.3718L18.4939 17.3568C18.8171 18.2959 18.397 19.1542 17.7233 19.6163C17.0524 20.0765 16.09 20.1768 15.2729 19.6163L11.6825 17.1535C11.2771 16.8754 10.7229 16.8754 10.3175 17.1535L6.72715 19.6163C5.91004 20.1768 4.94759 20.0765 4.2767 19.6163C3.60299 19.1542 3.18288 18.2959 3.50607 17.3568L4.87745 13.3718C5.02226 12.9511 4.86878 12.4795 4.46902 12.2053L0.878701 9.74246C0.0531819 9.17618 -0.157123 8.25353 0.108069 7.48293C0.372051 6.71585 1.10376 6.10238 2.10392 6.10238H6.54181C7.054 6.10238 7.48604 5.79183 7.63276 5.3655L9.00414 1.38055C9.32473 0.448988 10.183 5.67662e-07 11 0ZM11.5145 1.85055L12.8858 5.8355C13.2479 6.88766 14.2864 7.60003 15.4582 7.60003H19.8961C20.4201 7.60003 20.638 8.23314 20.214 8.52395L16.6237 10.9868C15.6757 11.637 15.2791 12.7897 15.6412 13.8418L17.0125 17.8268C17.1745 18.2973 16.6041 18.6886 16.1801 18.3978L12.5898 15.935C11.6418 15.2847 10.3582 15.2847 9.41021 15.935L5.81988 18.3978C5.39593 18.6886 4.82552 18.2973 4.98745 17.8268L6.35884 13.8418C6.72093 12.7897 6.32426 11.637 5.37629 10.9868L1.78597 8.52395C1.36202 8.23313 1.5799 7.60003 2.10392 7.60003H6.54181C7.71356 7.60003 8.75206 6.88766 9.11415 5.8355L10.4855 1.85056C10.6475 1.38001 11.3525 1.38002 11.5145 1.85055ZM9.45659 1.53491C9.94239 0.123284 12.0576 0.123282 12.5434 1.53491L13.9148 5.51985C14.132 6.15114 14.7551 6.57857 15.4582 6.57857H19.8961C21.4681 6.57857 22.1218 8.47789 20.85 9.35032L17.2596 11.8132C16.6908 12.2033 16.4528 12.8949 16.6701 13.5262L18.0415 17.5111C18.5273 18.9228 16.816 20.0966 15.5442 19.2242L11.9539 16.7614C11.3851 16.3712 10.6149 16.3712 10.0461 16.7614L6.4558 19.2242C5.18396 20.0966 3.47272 18.9228 3.95852 17.5111L5.3299 13.5262C5.54715 12.8949 5.30915 12.2033 4.74037 11.8132L1.15005 9.35033C-0.121786 8.47789 0.531848 6.57857 2.10392 6.57857H6.54181C7.24486 6.57857 7.86796 6.15114 8.08521 5.51985L9.45659 1.53491Z" fill="#F4CE07"/>
</svg>
