<svg width="20" height="20" viewBox="0 0 20 20" fill="none" xmlns="http://www.w3.org/2000/svg">
<path fill-rule="evenodd" clip-rule="evenodd" d="M10.0167 20C10.0167 20 18.9338 20 19.9785 1.86912C20.0169 1.20402 20.0611 0.809746 19.5588 0.304739C19.0566 -0.200268 18.6907 0.0502281 18.042 0.15807C11.9729 1.16714 7.89763 1.1611 1.98242 0.162579C1.33607 0.0534687 0.976877 -0.200268 0.474667 0.304739C-0.0275459 0.809746 -0.0150528 1.19914 0.00904465 1.86206C0.668337 20 10.0167 20 10.0167 20ZM2.03389 2.2184C2.39827 10.3383 4.58647 14.2078 6.41506 16.0466C7.42518 17.0623 8.40145 17.5397 9.08253 17.768C9.42656 17.8833 9.7001 17.9365 9.86919 17.9608C9.93293 17.97 9.98138 17.975 10.0126 17.9776C10.0396 17.9751 10.0801 17.9706 10.1329 17.9626C10.2861 17.9397 10.54 17.8884 10.8634 17.7757C11.5022 17.5531 12.4397 17.0815 13.4291 16.0633C15.2258 14.2141 17.4048 10.33 17.9441 2.2205C12.0128 3.17451 7.83371 3.1677 2.03389 2.2184Z" fill="#01A77F"/>
<path fill-rule="evenodd" clip-rule="evenodd" d="M5.84796 8.8039C6.22368 8.45317 6.81268 8.47334 7.16351 8.84896L8.65669 10.4597L13.282 6.22245C13.6578 5.87171 14.2467 5.89189 14.5976 6.26751C14.9484 6.64313 14.9282 7.23196 14.5525 7.5827L9.24686 12.4551C8.87114 12.8058 8.28214 12.7856 7.93131 12.41L5.80289 10.1191C5.45205 9.74347 5.47223 9.15464 5.84796 8.8039Z" fill="#01A77F"/>
</svg>
